<mxfile host="app.diagrams.net" modified="2024-02-26T07:49:51.390Z" agent="Mozilla/5.0 (Windows NT 10.0; Win64; x64) AppleWebKit/537.36 (KHTML, like Gecko) Chrome/121.0.0.0 Safari/537.36 Edg/121.0.0.0" version="22.1.21" etag="DG-FqhfQqbi6Y8xULgAD" type="github">
  <diagram name="第 1 页" id="cmVu62qpF8WR1ocVgfWY">
    <mxGraphModel>
      <root>
        <mxCell id="0" />
        <mxCell id="1" parent="0" />
      </root>
    </mxGraphModel>
  </diagram>
</mxfile>
